<svg xmlns="http://www.w3.org/2000/svg" viewBox="0 0 1200 630" fill="none">
  <rect width="1200" height="630" fill="#060709"/>
  <g transform="translate(432.4515 280) scale(0.7)" color="#f4f6fa">
    <g transform="translate(0 5) scale(0.9)"><path d="M 4.00 91.52 L 4.00 94.01 L 4.98 95.50 L 56.41 95.50 L 59.35 94.01 L 104.41 34.34 L 108.82 30.85 L 120.08 30.85 L 121.55 32.84 L 121.06 34.34 L 95.59 67.65 L 95.10 72.13 L 98.04 75.61 L 125.47 94.51 L 127.92 95.50 L 194.04 95.50 L 195.51 94.01 L 195.51 91.03 L 171.51 74.62 L 147.51 57.21 L 147.51 54.72 L 162.20 35.83 L 163.18 31.35 L 162.20 28.86 L 159.76 26.38 L 158.29 25.88 L 139.67 9.47 L 134.29 5.49 L 129.88 4.00 L 129.39 4.50 L 128.90 4.00 L 76.49 4.00 L 75.51 4.50 L 76.00 6.49 L 100.00 26.38 L 100.49 27.87 L 100.00 29.86 L 97.55 31.85 L 51.02 31.85 L 48.08 33.34 Z" fill="currentColor"/></g>
    <g transform="translate(204 19) scale(0.62)"><path d="M0 98.54L0 0L38.43 0Q49.67 0 57.54 3.97Q65.41 7.94 69.54 15.15Q73.68 22.35 73.68 32.08Q73.68 41.80 69.48 48.84Q65.28 55.89 57.31 59.62Q49.34 63.36 37.96 63.36L11.90 63.36L11.90 47.02L34.72 47.02Q40.94 47.02 44.91 45.34Q48.88 43.65 50.86 40.31Q52.84 36.97 52.84 32.08Q52.84 27.05 50.86 23.64Q48.88 20.24 44.87 18.45Q40.87 16.67 34.66 16.67L20.17 16.67L20.17 98.54ZM54.83 98.54L30.82 53.70L52.71 53.70L77.18 98.54ZM121.89 100Q110.58 100 102.38 95.37Q94.18 90.74 89.78 82.21Q85.38 73.68 85.38 61.97Q85.38 50.53 89.75 41.93Q94.11 33.33 102.12 28.51Q110.12 23.68 120.90 23.68Q128.17 23.68 134.46 25.99Q140.74 28.31 145.50 32.97Q150.26 37.63 152.94 44.64Q155.62 51.65 155.62 61.18L155.62 66.73L93.52 66.73L93.52 54.30L145.90 54.30L136.64 57.61Q136.64 51.85 134.89 47.59Q133.13 43.32 129.66 40.97Q126.19 38.62 121.10 38.62Q115.94 38.62 112.33 41.01Q108.73 43.39 106.88 47.45Q105.03 51.52 105.03 56.75L105.03 65.54Q105.03 71.96 107.18 76.32Q109.33 80.69 113.19 82.87Q117.06 85.05 122.22 85.05Q125.73 85.05 128.57 84.06Q131.42 83.07 133.43 81.12Q135.45 79.17 136.51 76.32L154.50 79.70Q152.71 85.78 148.28 90.38Q143.85 94.97 137.20 97.49Q130.56 100 121.89 100ZM205.88 24.60L205.88 39.75L162.03 39.75L162.03 24.60ZM172.22 7.01L192.06 7.01L192.06 76.92Q192.06 80.42 193.61 82.11Q195.17 83.80 198.80 83.80Q199.93 83.80 201.98 83.50Q204.03 83.20 205.09 82.94L207.93 97.82Q204.62 98.81 201.35 99.21Q198.08 99.60 195.10 99.60Q183.99 99.60 178.10 94.18Q172.22 88.76 172.22 78.64ZM239.41 100Q232.40 100 226.81 97.52Q221.22 95.04 218.01 90.11Q214.80 85.19 214.80 77.84Q214.80 71.69 217.09 67.53Q219.37 63.36 223.30 60.85Q227.24 58.33 232.23 57.01Q237.22 55.69 242.71 55.16Q249.13 54.50 253.06 53.94Q257 53.37 258.82 52.15Q260.64 50.93 260.64 48.54L260.64 48.21Q260.64 45.04 259.31 42.86Q257.99 40.67 255.38 39.52Q252.77 38.36 249.06 38.36Q245.23 38.36 242.38 39.52Q239.54 40.67 237.75 42.59Q235.97 44.51 235.11 46.89L216.92 43.92Q218.84 37.43 223.27 32.94Q227.70 28.44 234.28 26.06Q240.86 23.68 249.13 23.68Q255.08 23.68 260.70 25.10Q266.33 26.52 270.79 29.50Q275.25 32.47 277.87 37.27Q280.48 42.06 280.48 48.74L280.48 98.54L261.70 98.54L261.70 88.29L261.03 88.29Q259.25 91.73 256.27 94.35Q253.30 96.96 249.10 98.48Q244.90 100 239.41 100ZM245.03 86.04Q249.72 86.04 253.26 84.19Q256.80 82.34 258.79 79.17Q260.77 75.99 260.77 72.09L260.77 64.09Q259.91 64.75 258.12 65.28Q256.34 65.81 254.16 66.20Q251.97 66.60 249.86 66.93Q247.74 67.26 246.09 67.46Q242.45 67.99 239.67 69.18Q236.89 70.37 235.37 72.32Q233.85 74.27 233.85 77.31Q233.85 80.16 235.31 82.11Q236.76 84.06 239.28 85.05Q241.79 86.04 245.03 86.04ZM315.39 76.92L315.39 53.04L318.37 53.04L342.57 24.60L365.52 24.60L333.58 61.71L328.88 61.71ZM297.40 98.54L297.40 0L317.24 0L317.24 98.54ZM343.57 98.54L321.34 66.14L334.64 52.05L366.91 98.54ZM409.35 100Q398.05 100 389.84 95.37Q381.64 90.74 377.24 82.21Q372.85 73.68 372.85 61.97Q372.85 50.53 377.21 41.93Q381.58 33.33 389.58 28.51Q397.58 23.68 408.36 23.68Q415.64 23.68 421.92 25.99Q428.20 28.31 432.97 32.97Q437.73 37.63 440.41 44.64Q443.08 51.65 443.08 61.18L443.08 66.73L380.98 66.73L380.98 54.30L433.36 54.30L424.10 57.61Q424.10 51.85 422.35 47.59Q420.60 43.32 417.13 40.97Q413.65 38.62 408.56 38.62Q403.40 38.62 399.80 41.01Q396.19 43.39 394.34 47.45Q392.49 51.52 392.49 56.75L392.49 65.54Q392.49 71.96 394.64 76.32Q396.79 80.69 400.66 82.87Q404.53 85.05 409.69 85.05Q413.19 85.05 416.03 84.06Q418.88 83.07 420.90 81.12Q422.91 79.17 423.97 76.32L441.96 79.70Q440.17 85.78 435.74 90.38Q431.31 94.97 424.67 97.49Q418.02 100 409.35 100Z" fill="currentColor"/></g>
  </g>
  <text x="600" y="470" fill="#f4f6fa" opacity="0.55" font-family="Inter, Arial, sans-serif" font-size="30" font-weight="500" letter-spacing="0.5" text-anchor="middle">Le hub competitif de la communaute CS2</text>
</svg>
